<svg width="64" height="64" viewBox="0 0 64 64" fill="none" xmlns="http://www.w3.org/2000/svg">
<mask id="mask0_1_4" style="mask-type:alpha" maskUnits="userSpaceOnUse" x="0" y="0" width="64" height="64">
<rect width="64" height="64" rx="16" fill="black"/>
</mask>
<g mask="url(#mask0_1_4)">
<rect x="4" y="4" width="56" height="56" rx="12" fill="#008000" stroke="white" stroke-width="8"/>
<path d="M6.61295 10.4159L5.46029 15.8387L32.5129 21.5889L33.6656 16.1661L6.61295 10.4159ZM5.90662 38.283L4.88494 43.0896L22.8173 46.9012L23.839 42.0946L5.90662 38.283ZM4.31397 46.3818L3.14821 51.8663L20.526 55.56L21.6917 50.0756L4.31397 46.3818ZM19.6753 4.11089L14.1084 30.3008L20.2708 31.6106L25.8376 5.42073L19.6753 4.11089ZM13.7723 34.6091L10.3668 50.6311L15.2966 51.679L18.7022 35.6569L13.7723 34.6091ZM33.2666 1.07433C27.2606 1.15026 17.4994 0.10598 9.33505 -1.17855C9.67621 0.246521 9.90872 2.48579 9.86705 3.8939C18.1639 5.46422 28.4666 6.68802 35.9292 6.72848L33.2666 1.07433ZM22.426 17.8347L18.69 20.2609C20.9429 22.9941 25.4019 29.2877 27.0571 32.409L31.911 27.4509C30.5839 25.8162 24.334 19.464 22.426 17.8347ZM10.0364 5.21806C10.4184 7.36028 10.7048 10.2551 10.734 11.9359L15.9782 11.5048C15.9359 9.88563 15.5001 7.08787 15.0434 4.99417L10.0364 5.21806ZM29.4356 7.28043C28.3085 9.55275 26.3163 12.8649 24.7841 14.9223L28.9813 17.2958C30.5359 15.4364 32.4718 12.692 34.4077 9.94748L29.4356 7.28043ZM16.2661 15.3016C13.1254 18.5629 7.38492 22.2377 2.80694 23.7765C3.35144 25.7601 4.043 28.8698 4.12993 30.8849C9.56915 28.6275 15.8743 23.2049 19.8971 18.5209L16.2661 15.3016ZM4.42197 29.208L-0.856701 54.0422L4.62777 55.2079L8.75378 35.7966L22.5574 38.7306L18.5886 57.4025L24.2579 58.6076L29.3794 34.5128L4.42197 29.208ZM37.9321 4.57791L36.6223 10.7402L47.0366 12.9539L48.3465 6.79154L37.9321 4.57791ZM45.0804 6.09732L34.8898 54.0403C34.7196 54.8414 34.4338 54.9738 33.6943 54.8167C33.0033 54.7342 30.7849 54.2626 28.6412 53.7426C29.1634 55.5282 29.4367 58.4846 29.1931 60.2362C32.7673 60.9959 35.2715 61.335 37.2813 60.6673C39.291 59.9995 40.1639 58.3172 40.7926 55.3593L50.9963 7.35477L45.0804 6.09732ZM52.2642 7.75309L50.9543 13.9154L60.3211 15.9064L61.6309 9.74405L52.2642 7.75309ZM59.1043 9.20701L48.9793 56.8418C48.7959 57.7046 48.4839 57.9603 47.6828 57.79C46.8817 57.6197 44.342 57.1443 41.9164 56.4355C42.4871 58.2958 42.7827 61.4502 42.6624 63.228C46.4831 64.0401 49.2338 64.4316 51.3052 63.777C53.4382 63.1354 54.3857 61.4046 55.0538 58.2618L65.2051 10.5038L59.1043 9.20701ZM34.3396 16.6314C34.9317 20.8149 35.3589 26.3803 35.3202 29.5925L40.5776 29.0998C40.5415 25.9362 39.9518 20.5294 39.2233 16.3813L34.3396 16.6314ZM48.9258 19.2165C49.3069 23.484 49.3775 28.9092 49.1408 32.1437L54.4428 32.0469C54.5916 28.9226 54.3362 23.4581 53.8542 19.3624L48.9258 19.2165ZM43.3885 41.9347L45.2592 47.6781C49.07 45.2034 53.2937 42.3011 57.17 39.5182L55.3177 34.2939C50.883 37.2802 46.3249 40.2402 43.3885 41.9347ZM28.7683 40.1152L30.6521 45.797C34.7002 43.1151 39.3368 39.7853 43.4897 36.6104L41.5888 31.3114C36.7897 34.7998 31.8935 38.1388 28.7683 40.1152Z" fill="white"/>
</g>
</svg>
